<?xml version="1.0" encoding="utf-8"?>
<!-- Generator: Adobe Illustrator 22.0.1, SVG Export Plug-In . SVG Version: 6.00 Build 0)  -->
<svg version="1.1" id="Layer_1" xmlns="http://www.w3.org/2000/svg" xmlns:xlink="http://www.w3.org/1999/xlink" x="0px" y="0px"
	 viewBox="0 0 241.6 41.6" style="enable-background:new 0 0 241.6 41.6;" xml:space="preserve">
<style type="text/css">
	.st0{fill:#333333;}
	.st1{display:none;}
	.st2{display:inline;fill:#3E3E42;}
	.st3{font-family:'AlfaSlabOne-Regular';}
	.st4{font-size:24.4634px;}
	.st5{font-family:'Lato-Bold';}
	.st6{font-size:16.2115px;}
	.st7{fill:#8A8A91;}
</style>
<g id="OBJECTS">
	<g>
		<g>
			<path class="st0" d="M101.5,17.7h1.2v4H96l-3.7-7.6L91.2,15v2.6h1.2v4h-9.2v-4h1.2v-11h-1.2v-4h9.2v4h-1.2V10L95,6.7h-1.5v-4h9.1
				v4h-1.2l-4.1,3.4L101.5,17.7z"/>
			<path class="st0" d="M103.6,21.7v-4h1.2v-11h-1.2v-4h9.3v4h-1.2v11h1.2v4H103.6z"/>
			<path class="st0" d="M127.9,2.7h8v4h-1.2v15h-6.9l-7.2-11v7h1.2v4h-8v-4h1.2v-11h-1.2v-4h8.8l6.4,9.8V6.7h-1.2L127.9,2.7
				L127.9,2.7z"/>
			<path class="st0" d="M155.3,15.6h-1.2v4.9c-0.7,0.4-1.8,0.8-3.1,1.1c-1.4,0.3-2.9,0.5-4.5,0.5c-3,0-5.4-0.8-7.2-2.4
				c-1.7-1.6-2.6-4.1-2.6-7.4c0-3.4,0.9-5.9,2.6-7.5s4.2-2.3,7.4-2.3c1.5,0,3,0.2,4.4,0.5s2.4,0.7,3.1,1.1v5.8H148V8.7
				c0-0.7-0.1-1.2-0.4-1.5c-0.3-0.3-0.7-0.5-1.4-0.5c-0.6,0-1.1,0.2-1.4,0.5c-0.3,0.3-0.4,0.8-0.4,1.5v7.1c0,0.7,0.1,1.2,0.4,1.5
				c0.3,0.3,0.7,0.5,1.4,0.5c0.6,0,1.1-0.2,1.4-0.5c0.3-0.3,0.4-0.8,0.4-1.5v-0.2h-1.3V12h8.7L155.3,15.6L155.3,15.6z"/>
			<path class="st0" d="M163.4,21.7v-4h1.2v-11h-1.2v-4H178V9h-4.3V6.7h-2.2v4.1h3.7v2.8h-3.7v4.2h3.2v4L163.4,21.7L163.4,21.7z"/>
			<path class="st0" d="M178.8,21.7v-4h1.2v-11h-1.2v-4h16.5v7.4h-5.5V6.7h-3v3.9h2.2v2.8h-2.2v4.4h3v-3.9h5.5v7.9h-16.5V21.7z"/>
			<path class="st0" d="M196.3,21.7v-4h1.2v-11h-1.2v-4h10.3v4h-2.3v11h2.2v-2.3h4.9v6.3H196.3z"/>
			<path class="st0" d="M212.2,21.7v-4h1.2v-11h-1.2v-4h9.3v4h-1.2v11h1.2v4H212.2z"/>
			<path class="st0" d="M240.2,17.7h1v4H232v-4h1l-1.4-2h-0.2l-1.4,2h1v4h-8.6v-4h1.3l4.7-5.3l-4.9-5.7h-1v-4h9.2v4h-0.9l1.3,2h0.2
				l1.3-2h-0.9v-4h8.5v4h-1.3l-4.6,5.2L240.2,17.7z"/>
		</g>
		<g>
			<path class="st0" d="M83.8,38.7V26.9h4c0.8,0,1.4,0.1,2,0.2c0.5,0.1,1,0.4,1.3,0.6c0.3,0.3,0.6,0.6,0.8,1s0.2,0.8,0.2,1.3
				c0,0.3,0,0.5-0.1,0.8s-0.2,0.5-0.4,0.7s-0.4,0.4-0.6,0.6c-0.3,0.2-0.6,0.3-0.9,0.5c1.6,0.4,2.4,1.2,2.4,2.6c0,0.5-0.1,1-0.3,1.4
				c-0.2,0.4-0.5,0.8-0.8,1.1c-0.4,0.3-0.8,0.5-1.3,0.7s-1.1,0.3-1.8,0.3C88.3,38.7,83.8,38.7,83.8,38.7z M86,32h1.7
				c0.7,0,1.3-0.1,1.7-0.4c0.4-0.3,0.6-0.7,0.6-1.3c0-0.6-0.2-1-0.5-1.3s-0.9-0.4-1.6-0.4H86V32z M86,33.5V37h2.2c0.4,0,0.7,0,1-0.1
				s0.5-0.2,0.7-0.4s0.3-0.4,0.4-0.6s0.1-0.4,0.1-0.7s0-0.5-0.1-0.7s-0.2-0.4-0.4-0.5s-0.4-0.3-0.7-0.3c-0.3-0.1-0.6-0.1-1-0.1H86
				V33.5z"/>
			<path class="st0" d="M98.8,38.7h-2.2V26.9h2.2V38.7z"/>
			<path class="st0" d="M105.6,31.9h0.5c0.2,0,0.4,0,0.5-0.1s0.3-0.1,0.3-0.3l3.2-4.1c0.1-0.2,0.3-0.3,0.4-0.4s0.3-0.1,0.6-0.1h1.9
				l-3.9,4.9c-0.1,0.2-0.2,0.3-0.4,0.4c-0.1,0.1-0.2,0.2-0.4,0.3c0.2,0.1,0.3,0.2,0.5,0.3s0.3,0.3,0.4,0.5l4.1,5.5h-1.9
				c-0.3,0-0.5,0-0.6-0.1s-0.2-0.2-0.3-0.3l-3.3-4.3c-0.1-0.1-0.2-0.2-0.4-0.3c-0.1-0.1-0.3-0.1-0.6-0.1h-0.7v5.2h-2.2v-12h2.2v5
				C105.5,31.9,105.6,31.9,105.6,31.9z"/>
			<path class="st0" d="M124,26.9v1.7h-5.2v3.2h4.1v1.7h-4.1v3.3h5.2v1.7h-7.4V26.9H124z"/>
			<path class="st0" d="M139.2,29.1c-0.1,0.1-0.1,0.2-0.2,0.3c-0.1,0-0.2,0.1-0.3,0.1s-0.2,0-0.4-0.1c-0.1-0.1-0.3-0.2-0.5-0.3
				c-0.2-0.1-0.4-0.2-0.6-0.3c-0.2-0.1-0.5-0.1-0.9-0.1c-0.3,0-0.6,0-0.8,0.1s-0.4,0.2-0.6,0.3c-0.2,0.1-0.3,0.3-0.3,0.5
				c-0.1,0.2-0.1,0.4-0.1,0.6c0,0.3,0.1,0.5,0.2,0.7c0.2,0.2,0.4,0.3,0.6,0.5c0.3,0.1,0.5,0.2,0.9,0.3s0.7,0.2,1,0.3s0.7,0.3,1,0.4
				c0.3,0.2,0.6,0.3,0.9,0.6s0.5,0.5,0.6,0.9c0.2,0.3,0.2,0.8,0.2,1.2c0,0.5-0.1,1-0.3,1.5s-0.4,0.9-0.8,1.2
				c-0.3,0.3-0.8,0.6-1.3,0.8s-1.1,0.3-1.7,0.3c-0.4,0-0.7,0-1.1-0.1c-0.4-0.1-0.7-0.2-1-0.3s-0.6-0.3-0.9-0.5
				c-0.3-0.2-0.5-0.4-0.8-0.6l0.6-1c0.1-0.1,0.1-0.1,0.2-0.2s0.2-0.1,0.3-0.1s0.3,0.1,0.4,0.2c0.2,0.1,0.3,0.2,0.6,0.4
				c0.2,0.1,0.5,0.3,0.8,0.4c0.3,0.1,0.6,0.2,1,0.2c0.6,0,1.1-0.1,1.4-0.4c0.3-0.3,0.5-0.7,0.5-1.3c0-0.3-0.1-0.6-0.2-0.8
				c-0.2-0.2-0.4-0.4-0.6-0.5c-0.3-0.1-0.5-0.2-0.9-0.3s-0.7-0.2-1-0.3s-0.7-0.2-1-0.4s-0.6-0.3-0.9-0.6s-0.5-0.5-0.6-0.9
				c-0.2-0.4-0.2-0.8-0.2-1.3c0-0.4,0.1-0.8,0.3-1.2c0.2-0.4,0.4-0.8,0.7-1.1s0.7-0.6,1.2-0.8c0.5-0.2,1-0.3,1.6-0.3
				c0.7,0,1.3,0.1,1.9,0.3c0.6,0.2,1.1,0.5,1.5,0.9L139.2,29.1z"/>
			<path class="st0" d="M153.5,38.7h-2.2v-5.1h-5.5v5.1h-2.2V26.9h2.2v5h5.5v-5h2.2V38.7z"/>
			<path class="st0" d="M169,32.8c0,0.9-0.1,1.7-0.4,2.4c-0.3,0.7-0.7,1.4-1.2,1.9s-1.1,1-1.9,1.3s-1.5,0.5-2.4,0.5
				s-1.7-0.2-2.4-0.5s-1.4-0.7-1.9-1.3s-0.9-1.2-1.2-1.9s-0.4-1.5-0.4-2.4s0.1-1.7,0.4-2.4s0.7-1.4,1.2-1.9s1.1-1,1.9-1.3
				c0.7-0.3,1.5-0.4,2.4-0.4s1.7,0.2,2.4,0.5s1.4,0.7,1.9,1.3c0.5,0.5,0.9,1.2,1.2,1.9C168.9,31.2,169,31.9,169,32.8z M166.8,32.8
				c0-0.6-0.1-1.2-0.3-1.7s-0.4-0.9-0.7-1.3s-0.7-0.6-1.2-0.8c-0.5-0.2-1-0.3-1.5-0.3c-0.6,0-1.1,0.1-1.5,0.3
				c-0.5,0.2-0.8,0.5-1.2,0.8c-0.3,0.4-0.6,0.8-0.7,1.3c-0.2,0.5-0.3,1.1-0.3,1.7c0,0.6,0.1,1.2,0.3,1.7s0.4,0.9,0.7,1.3
				c0.3,0.4,0.7,0.6,1.2,0.8s1,0.3,1.5,0.3c0.6,0,1.1-0.1,1.5-0.3c0.5-0.2,0.8-0.5,1.2-0.8c0.3-0.4,0.6-0.8,0.7-1.3
				S166.8,33.4,166.8,32.8z"/>
			<path class="st0" d="M175,34.5v4.1h-2.2V26.9h3.8c0.8,0,1.5,0.1,2,0.3c0.6,0.2,1,0.4,1.4,0.8s0.6,0.7,0.8,1.2s0.3,1,0.3,1.5
				c0,0.6-0.1,1.1-0.3,1.6s-0.5,0.9-0.9,1.2s-0.9,0.6-1.4,0.8c-0.6,0.2-1.2,0.3-2,0.3L175,34.5L175,34.5z M175,32.8h1.6
				c0.4,0,0.7,0,1-0.1s0.5-0.2,0.7-0.4s0.3-0.4,0.4-0.7c0.1-0.3,0.1-0.6,0.1-0.9s0-0.6-0.1-0.9s-0.2-0.5-0.4-0.6
				c-0.2-0.2-0.4-0.3-0.7-0.4s-0.6-0.1-1-0.1H175V32.8z"/>
		</g>
	</g>
	<g class="st1">
		<text transform="matrix(1 0 0 1 82.6631 21.7481)" class="st2 st3 st4">KING FELIX</text>
		<text transform="matrix(1 0 0 1 82.6636 38.6664)" class="st2 st5 st6">BIKE SHOP</text>
	</g>
	<g>
		<g>
			<g>
				<g>
					<g>
						<rect x="36.9" y="4.1" class="st7" width="0.5" height="30"/>
					</g>
					<g>
						<rect x="40.8" y="4.1" class="st7" width="0.5" height="30"/>
					</g>
				</g>
			</g>
			<g>
				<g>
					<g>
						<path class="st7" d="M36.3,35.2c-0.1,0-0.2-0.1-0.3-0.2L25.8,6.9c-0.1-0.1,0-0.3,0.2-0.4c0.1-0.1,0.3,0,0.4,0.2l10.2,28.1
							C36.6,35,36.5,35.1,36.3,35.2L36.3,35.2z"/>
					</g>
					<g>
						
							<rect x="34.5" y="4.6" transform="matrix(0.9397 -0.342 0.342 0.9397 -4.6092 13.0673)" class="st7" width="0.5" height="30"/>
					</g>
				</g>
			</g>
			<g>
				<g>
					<g>
						
							<rect x="25.8" y="9.6" transform="matrix(0.766 -0.6428 0.6428 0.766 -9.7205 22.5067)" class="st7" width="0.5" height="30"/>
					</g>
					<g>
						<rect x="28.7" y="7.1" transform="matrix(0.766 -0.6428 0.6428 0.766 -7.4382 23.77)" class="st7" width="0.5" height="30"/>
					</g>
				</g>
			</g>
			<g>
				<g>
					<g>
						<polygon class="st7" points="35.1,36.8 9.7,22.1 9.4,22.6 34,36.8 						"/>
					</g>
					<g>
						<rect x="24.2" y="11.5" transform="matrix(0.5 -0.866 0.866 0.5 -10.7184 34.4283)" class="st7" width="0.5" height="30"/>
					</g>
				</g>
			</g>
			<g>
				<g>
					<g>
						<polygon class="st7" points="27.2,36.8 6.3,33.1 6.2,33.6 24.1,36.8 						"/>
					</g>
					<g>
						
							<rect x="21.5" y="17.2" transform="matrix(0.1737 -0.9848 0.9848 0.1737 -13.7111 47.9642)" class="st7" width="0.5" height="30"/>
					</g>
				</g>
				<g>
					<g>
						<polygon class="st7" points="49.3,36.8 42.5,35.6 42.4,36.1 46.1,36.8 						"/>
					</g>
				</g>
			</g>
			<g>
				<g>
					<g>
						<polygon class="st7" points="32.1,36.8 35.8,36.1 35.7,35.6 29,36.8 						"/>
					</g>
				</g>
				<g>
					<g>
						<polygon class="st7" points="54.2,36.8 72,33.6 71.9,33.1 51,36.8 						"/>
					</g>
					<g>
						<polygon class="st7" points="41.9,35 41.8,34.5 71.3,29.3 71.4,29.8 						"/>
					</g>
				</g>
			</g>
			<g>
				<g>
					<g>
						<polygon class="st7" points="44.2,36.8 68.8,22.6 68.6,22.1 43.1,36.8 						"/>
					</g>
					<g>
						
							<rect x="38.8" y="26.2" transform="matrix(0.8658 -0.5004 0.5004 0.8658 -6.0115 30.4663)" class="st7" width="30" height="0.5"/>
					</g>
				</g>
			</g>
			<g>
				<g>
					<g>
						
							<rect x="37.2" y="24.3" transform="matrix(0.6429 -0.766 0.766 0.6429 -0.1538 48.7374)" class="st7" width="30" height="0.5"/>
					</g>
					<g>
						
							<rect x="34.2" y="21.8" transform="matrix(0.6429 -0.7659 0.7659 0.6429 0.667 45.5764)" class="st7" width="30" height="0.5"/>
					</g>
				</g>
			</g>
			<g>
				<g>
					<g>
						<rect x="32.1" y="20.6" transform="matrix(0.3412 -0.94 0.94 0.3412 11.4276 57.9829)" class="st7" width="30" height="0.5"/>
					</g>
					<g>
						<rect x="28.5" y="19.3" transform="matrix(0.3412 -0.94 0.94 0.3412 10.2834 53.7563)" class="st7" width="30" height="0.5"/>
					</g>
				</g>
			</g>
		</g>
		<path class="st0" d="M74.5,35.1C73.4,16.5,58,1.7,39.1,1.7S4.8,16.5,3.7,35.1H0v3.3h78.2v-3.3H74.5z M39.1,6.1
			c16.4,0,29.9,12.8,31,29h-62C9.2,18.9,22.7,6.1,39.1,6.1z"/>
	</g>
</g>
</svg>
